<?xml version="1.0" encoding="utf-8"?>
<!-- Generator: Adobe Illustrator 20.1.0, SVG Export Plug-In . SVG Version: 6.00 Build 0)  -->
<svg version="1.1" id="Capa_1" xmlns="http://www.w3.org/2000/svg" xmlns:xlink="http://www.w3.org/1999/xlink" x="0px" y="0px"
	 viewBox="0 0 453.8 453.8" style="enable-background:new 0 0 453.8 453.8;" xml:space="preserve">
<path d="M202.8,74.1l153.8,153.8L202.8,381.6c-10.4,10.4-10.4,27.2,0,37.6s27.2,10.4,37.6,0l172.5-172.5c5.3-5.2,7.8-12.1,7.8-18.9
	c0-6.9-2.6-13.7-7.8-18.9L240.4,36.5c-10.4-10.4-27.2-10.4-37.6,0C192.4,46.9,192.4,63.7,202.8,74.1z"/>
<path d="M41,72.2l153.8,153.8L41,379.7c-10.4,10.4-10.4,27.2,0,37.6c10.4,10.4,27.2,10.4,37.6,0l172.5-172.5
	c5.3-5.2,7.8-12.1,7.8-18.9c0-6.9-2.6-13.7-7.8-18.9L78.6,34.6c-10.4-10.4-27.2-10.4-37.6,0S30.6,61.8,41,72.2z"/>
</svg>
