<?xml version="1.0" encoding="utf-8"?>
<!-- Generator: Adobe Illustrator 20.1.0, SVG Export Plug-In . SVG Version: 6.00 Build 0)  -->
<svg version="1.1" id="Capa_1" xmlns="http://www.w3.org/2000/svg" xmlns:xlink="http://www.w3.org/1999/xlink" x="0px" y="0px"
	 viewBox="0 0 453.8 453.8" style="enable-background:new 0 0 453.8 453.8;" xml:space="preserve">
<path d="M0,226.9c0,125.3,101.6,226.9,226.9,226.9c125.4,0,226.9-101.6,226.9-226.9C453.8,101.6,352.2,0,226.9,0
	C101.6,0,0,101.6,0,226.9z M423.5,226.9c0,108.3-88.2,196.5-196.5,196.5S30.5,335.2,30.5,226.9c0-108.3,88.1-196.5,196.5-196.5
	C335.3,30.4,423.5,118.6,423.5,226.9z"/>
<path d="M213.1,139.6l87.9,87.9l-87.9,87.9c-5.9,5.9-5.9,15.6,0,21.5s15.6,5.9,21.5,0l98.6-98.6c3-3,4.4-6.9,4.4-10.8
	c0-3.9-1.5-7.8-4.4-10.8l-98.6-98.6c-5.9-5.9-15.6-5.9-21.5,0S207.2,133.6,213.1,139.6z"/>
<path d="M120.6,138.5l87.9,87.9l-87.9,87.9c-5.9,5.9-5.9,15.6,0,21.5s15.6,5.9,21.5,0l98.6-98.6c3-3,4.4-6.9,4.4-10.8
	c0-3.9-1.5-7.8-4.4-10.8L142.1,117c-5.9-5.9-15.6-5.9-21.5,0S114.7,132.5,120.6,138.5z"/>
</svg>
