<svg xmlns="http://www.w3.org/2000/svg" viewBox="0 0 17 17" enable-background="new 0 0 17 17"><style type="text/css">.st0{fill:#727272;}</style><path class="st0" d="M9.4.9v2c.9.1 1.7.5 2.3 1l1.4-1.4 1.3 1.3-1.4 1.4c.5.7.8 1.5 1 2.3h2v1.9h-2c-.1.9-.5 1.7-1 2.3l1.4 1.4-1.3 1.3-1.4-1.4c-.7.5-1.5.8-2.3 1v2h-1.8v-2c-.9-.1-1.7-.5-2.3-1l-1.4 1.4-1.3-1.3 1.4-1.4c-.5-.7-.8-1.5-1-2.3h-2v-1.8h2c.1-.9.5-1.7 1-2.3l-1.5-1.5 1.3-1.3 1.4 1.4c.7-.5 1.5-.8 2.3-1v-2h1.9m-.9 10.4c1.6 0 2.8-1.3 2.8-2.8 0-1.6-1.3-2.8-2.8-2.8s-2.8 1.2-2.8 2.8c0 1.6 1.2 2.8 2.8 2.8m1.9-11.3h-3.8v2.1l-1.2.6-.9-.9-.7-.6-.6.6-1.4 1.4-.6.6.7.7.9.9c-.3.4-.5.8-.6 1.2h-2.2v3.6999999999999997h2.1c.1.4.3.9.5 1.3l-.9.9-.7.7.7.7 1.3 1.3.7.7.7-.7.9-.9c.4.2.8.4 1.3.5v2.2h3.6999999999999997v-2.1c.4-.1.9-.3 1.3-.5l.9.9.7.7.7-.7 1.3-1.3.7-.7-.7-.7-.9-.9c.2-.4.4-.8.5-1.3h2.2v-3.8h-2.1c-.1-.4-.3-.9-.5-1.3l.9-.9.7-.7-.7-.7-1.3-1.3-.7-.7-.7.7-.9.9c-.4-.2-.8-.4-1.3-.5v-2.1zm-1.9 10.4c-1 0-1.9-.8-1.9-1.9s.8-1.9 1.9-1.9c1 0 1.9.8 1.9 1.9s-.9 1.9-1.9 1.9z"/></svg>